<svg width="28" height="28" viewBox="0 0 28 28" fill="none" xmlns="http://www.w3.org/2000/svg">
<circle cx="14" cy="14" r="13.5" stroke="#C4C4C4"/>
<g clip-path="url(#clip0_1079_271)">
<path d="M15.6317 11.8421C16.3854 11.8421 17.1083 12.1415 17.6413 12.6745C18.1743 13.2075 18.4738 13.9304 18.4738 14.6842V18H16.579V14.6842C16.579 14.433 16.4792 14.192 16.3015 14.0143C16.1239 13.8367 15.8829 13.7368 15.6317 13.7368C15.3804 13.7368 15.1394 13.8367 14.9618 14.0143C14.7841 14.192 14.6843 14.433 14.6843 14.6842V18H12.7896V14.6842C12.7896 13.9304 13.089 13.2075 13.622 12.6745C14.155 12.1415 14.8779 11.8421 15.6317 11.8421Z" fill="#545454"/>
<path d="M10.8947 12.3158H9V18H10.8947V12.3158Z" fill="#545454"/>
<path d="M9.94737 10.8947C10.4706 10.8947 10.8947 10.4706 10.8947 9.94737C10.8947 9.42415 10.4706 9 9.94737 9C9.42415 9 9 9.42415 9 9.94737C9 10.4706 9.42415 10.8947 9.94737 10.8947Z" fill="#545454"/>
</g>
<defs>
<clipPath id="clip0_1079_271">
<rect width="10" height="9" fill="white" transform="translate(9 9)"/>
</clipPath>
</defs>
</svg>
