<svg width="14" height="13" viewBox="0 0 14 13" fill="none" xmlns="http://www.w3.org/2000/svg">
<path d="M6.78223 12H12.5645H6.78223Z" fill="white"/>
<path d="M6.78223 12H12.5645" stroke="#838383" stroke-width="2" stroke-linecap="round" stroke-linejoin="round"/>
<path d="M9.67339 1.39918C9.92898 1.14359 10.2756 1 10.6371 1C10.8161 1 10.9933 1.03525 11.1587 1.10374C11.324 1.17224 11.4743 1.27263 11.6008 1.39918C11.7274 1.52574 11.8278 1.67598 11.8962 1.84134C11.9647 2.00669 12 2.18391 12 2.36289C12 2.54187 11.9647 2.71909 11.8962 2.88445C11.8278 3.0498 11.7274 3.20004 11.6008 3.3266L3.56989 11.3575L1 12L1.64247 9.4301L9.67339 1.39918Z" fill="white" stroke="#838383" stroke-width="2" stroke-linecap="round" stroke-linejoin="round"/>
</svg>
