<svg width="28" height="28" viewBox="0 0 28 28" fill="none" xmlns="http://www.w3.org/2000/svg">
<circle cx="14" cy="14" r="13.5" stroke="#C4C4C4"/>
<path d="M20 9.00548C19.4777 9.37393 18.8993 9.65573 18.2873 9.84003C17.9588 9.46231 17.5222 9.19459 17.0366 9.07308C16.5509 8.95157 16.0397 8.98214 15.572 9.16064C15.1044 9.33915 14.7028 9.65698 14.4216 10.0711C14.1405 10.4853 13.9933 10.9758 14 11.4764V12.0218C13.0414 12.0467 12.0916 11.8341 11.2351 11.403C10.3786 10.9719 9.64199 10.3356 9.09091 9.55094C9.09091 9.55094 6.90909 14.46 11.8182 16.6418C10.6948 17.4044 9.35663 17.7867 8 17.7328C12.9091 20.46 18.9091 17.7328 18.9091 11.46C18.9086 11.3081 18.894 11.1565 18.8655 11.0073C19.4221 10.4583 19.815 9.76515 20 9.00548Z" fill="#545454"/>
</svg>
