<svg width="16" height="18" viewBox="0 0 16 18" fill="none" xmlns="http://www.w3.org/2000/svg">
<path d="M13.8333 8.16669H2.16667C1.24619 8.16669 0.5 8.91288 0.5 9.83335V15.6667C0.5 16.5872 1.24619 17.3334 2.16667 17.3334H13.8333C14.7538 17.3334 15.5 16.5872 15.5 15.6667V9.83335C15.5 8.91288 14.7538 8.16669 13.8333 8.16669Z" stroke="#9A9A9A" stroke-linecap="round" stroke-linejoin="round"/>
<path d="M3.8335 8.16669V4.83335C3.8335 3.72828 4.27248 2.66848 5.05388 1.88708C5.83529 1.10567 6.89509 0.666687 8.00016 0.666687C9.10523 0.666687 10.165 1.10567 10.9464 1.88708C11.7278 2.66848 12.1668 3.72828 12.1668 4.83335V8.16669" stroke="#9A9A9A" stroke-linecap="round" stroke-linejoin="round"/>
</svg>
