<svg width="20" height="20" viewBox="0 0 20 20" fill="none" xmlns="http://www.w3.org/2000/svg">
<path d="M18.3334 6.03331C18.3341 5.92363 18.313 5.81492 18.2716 5.71338C18.2301 5.61185 18.169 5.51951 18.0918 5.44164L14.5584 1.90831C14.4806 1.83107 14.3882 1.76997 14.2867 1.7285C14.1852 1.68703 14.0764 1.66601 13.9668 1.66664C13.8571 1.66601 13.7484 1.68703 13.6468 1.7285C13.5453 1.76997 13.453 1.83107 13.3751 1.90831L11.0168 4.26664L1.90843 13.375C1.83119 13.4528 1.77009 13.5452 1.72862 13.6467C1.68715 13.7482 1.66613 13.857 1.66676 13.9666V17.5C1.66676 17.721 1.75456 17.933 1.91084 18.0892C2.06712 18.2455 2.27908 18.3333 2.5001 18.3333H6.03343C6.15003 18.3397 6.26667 18.3214 6.37578 18.2798C6.48488 18.2381 6.58402 18.174 6.66676 18.0916L15.7251 8.98331L18.0918 6.66664C18.1678 6.58587 18.2298 6.49292 18.2751 6.39164C18.2831 6.32522 18.2831 6.25806 18.2751 6.19164C18.279 6.15285 18.279 6.11376 18.2751 6.07497L18.3334 6.03331ZM5.69176 16.6666H3.33343V14.3083L11.6084 6.03331L13.9668 8.39164L5.69176 16.6666ZM15.1418 7.21664L12.7834 4.85831L13.9668 3.68331L16.3168 6.03331L15.1418 7.21664Z" fill="white"/>
</svg>
